<?xml version="1.0" encoding="UTF-8" standalone="no"?>
<svg
   xmlns:dc="http://purl.org/dc/elements/1.1/"
   xmlns:cc="http://creativecommons.org/ns#"
   xmlns:rdf="http://www.w3.org/1999/02/22-rdf-syntax-ns#"
   xmlns:svg="http://www.w3.org/2000/svg"
   xmlns="http://www.w3.org/2000/svg"
   xmlns:sodipodi="http://sodipodi.sourceforge.net/DTD/sodipodi-0.dtd"
   xmlns:inkscape="http://www.inkscape.org/namespaces/inkscape"
   class="ionicon"
   viewBox="0 0 512 512"
   version="1.1"
   id="svg8"
   sodipodi:docname="man.svg"
   inkscape:version="1.0.1 (3bc2e813f5, 2020-09-07)">
	<metadata
	   id="metadata14">
		<rdf:RDF>
			<cc:Work
			   rdf:about="">
				<dc:format>image/svg+xml</dc:format>
				<dc:type
				   rdf:resource="http://purl.org/dc/dcmitype/StillImage" />
			</cc:Work>
		</rdf:RDF>
	</metadata>
	<defs
	   id="defs12" />
	<sodipodi:namedview
	   pagecolor="#ffffff"
	   bordercolor="#666666"
	   borderopacity="1"
	   objecttolerance="10"
	   gridtolerance="10"
	   guidetolerance="10"
	   inkscape:pageopacity="0"
	   inkscape:pageshadow="2"
	   inkscape:window-width="3840"
	   inkscape:window-height="2066"
	   id="namedview10"
	   showgrid="false"
	   inkscape:zoom="2.0039062"
	   inkscape:cx="256"
	   inkscape:cy="256"
	   inkscape:window-x="2149"
	   inkscape:window-y="609"
	   inkscape:window-maximized="1"
	   inkscape:current-layer="svg8"
	   inkscape:document-rotation="0" />
	<title
	   id="title2">Man</title>
	<circle
	   cx="256"
	   cy="56"
	   r="56"
	   id="circle4"
	   style="fill:#3793c8;fill-opacity:1" />
	<path
	   d="M304 128h-96a64.19 64.19 0 00-64 64v107.52c0 10.85 8.43 20.08 19.27 20.47A20 20 0 00184 300v-99.73a8.18 8.18 0 017.47-8.25 8 8 0 018.53 8V489a23 23 0 0023 23 23 23 0 0023-23V346.34a10.24 10.24 0 019.33-10.34A10 10 0 01266 346v143a23 23 0 0023 23 23 23 0 0023-23V200.27a8.18 8.18 0 017.47-8.25 8 8 0 018.53 8v99.52c0 10.85 8.43 20.08 19.27 20.47A20 20 0 00368 300V192a64.19 64.19 0 00-64-64z"
	   id="path6"
	   style="fill:#3793c8;fill-opacity:1" />
</svg>
